<?xml version="1.0" encoding="UTF-8"?>
<svg id="Layer_2" data-name="Layer 2" xmlns="http://www.w3.org/2000/svg" viewBox="0 0 139.85 66.89">
  <defs>
    <style>
      .cls-1 {
        fill: #feac31;
        fill-rule: evenodd;
      }

      .cls-2 {
        fill: none;
        stroke: #feac31;
        stroke-miterlimit: 10;
        stroke-width: 5px;
      }
    </style>
  </defs>
  <g id="Layer_1-2" data-name="Layer 1">
    <g>
      <g>
        <polygon id="Shape" class="cls-1" points="33.57 34.13 38.53 53.11 30.84 53.11 26.37 34.13 26.37 43.18 26.37 53.11 18.8 53.11 18.8 13.78 26.37 13.78 26.37 34.13 30.72 13.78 38.04 13.78 33.57 34.13"/>
        <polygon id="polygon866" class="cls-1" points="64.47 46.16 64.47 53.11 47.71 53.11 47.71 13.78 64.47 13.78 64.47 20.48 56.03 20.48 56.03 29.04 61.61 29.04 61.61 36.73 56.03 36.73 56.03 46.16 64.47 46.16"/>
        <polygon id="polygon875" class="cls-1" points="88.17 32.51 93.87 53.11 86.18 53.11 83.57 40.83 80.47 53.11 73.28 53.11 79.36 33.63 73.65 13.78 81.34 13.78 83.82 26.8 86.92 13.78 94.12 13.78 88.17 32.51"/>
        <path id="path877" class="cls-1" d="M113.6,38.34h-2.98v14.77h-7.57V13.78h10.55c3.97,0,7.44,2.36,7.44,7.82v8.81c0,5.58-3.47,7.94-7.44,7.94ZM113.85,21.97c0-1.24-.5-1.74-1.36-1.74h-1.86v12.28h1.86c.87,0,1.36-.5,1.36-1.74v-8.81Z"/>
      </g>
      <rect class="cls-2" x="2.5" y="2.5" width="134.85" height="61.89"/>
    </g>
  </g>
</svg>